<svg xmlns="http://www.w3.org/2000/svg" xmlns:xlink="http://www.w3.org/1999/xlink" version="1.1" x="0px" y="0px" viewBox="0 0 32 40" style="enable-background:new 0 0 32 32;" xml:space="preserve"><g><path d="M30,11.95v8.11c0,0.55-0.45,1-1,1s-1-0.45-1-1v-8.11c0-0.55,0.45-1,1-1S30,11.39,30,11.95z M24.67,5.63c-0.55,0-1,0.45-1,1   v18.73c0,0.55,0.45,1,1,1s1-0.45,1-1V6.63C25.67,6.08,25.22,5.63,24.67,5.63z M20.33,8.28c-0.55,0-1,0.45-1,1v13.45   c0,0.55,0.45,1,1,1s1-0.45,1-1V9.28C21.33,8.72,20.89,8.28,20.33,8.28z M16,5.69c-0.55,0-1,0.45-1,1v18.61c0,0.55,0.45,1,1,1   s1-0.45,1-1V6.69C17,6.14,16.55,5.69,16,5.69z M11.67,10.95c-0.55,0-1,0.45-1,1v8.11c0,0.55,0.45,1,1,1s1-0.45,1-1v-8.11   C12.67,11.39,12.22,10.95,11.67,10.95z M7.33,7.39c-0.55,0-1,0.45-1,1v15.22c0,0.55,0.45,1,1,1s1-0.45,1-1V8.39   C8.33,7.84,7.89,7.39,7.33,7.39z M3,10.95c-0.55,0-1,0.45-1,1v8.11c0,0.55,0.45,1,1,1s1-0.45,1-1v-8.11C4,11.39,3.55,10.95,3,10.95   z"/></g><text x="0" y="47" fill="#000000" font-size="5px" font-weight="bold" font-family="'Helvetica Neue', Helvetica, Arial-Unicode, Arial, Sans-serif">Created by Vektorify</text><text x="0" y="52" fill="#000000" font-size="5px" font-weight="bold" font-family="'Helvetica Neue', Helvetica, Arial-Unicode, Arial, Sans-serif">from the Noun Project</text></svg>